<svg width="1283" height="165" viewBox="0 0 1283 165" fill="none" xmlns="http://www.w3.org/2000/svg">
<path d="M273.569 91.8465C273.569 85.8276 270.004 81.815 262.205 79.5858C254.851 77.3566 246.384 75.1274 237.471 72.8981C213.182 66.6563 200.926 55.2874 200.926 38.7912C201.372 12.4865 216.97 -0.220039 247.944 0.00288217C277.358 0.00288217 292.51 12.9323 293.847 38.7912H279.586C274.238 38.7912 270.673 36.1161 268.221 31.4348C263.988 24.3013 256.411 20.7346 245.715 20.7346C232.568 20.9575 225.883 25.8618 225.438 35.4474C225.438 43.2496 233.237 49.0456 249.726 52.6123C259.085 54.8415 268.89 57.5166 279.363 61.3062C293.402 65.9876 299.864 76.242 299.195 92.0694C297.635 116.368 281.146 128.628 249.726 128.628C216.747 128.628 200.035 114.807 199.366 87.8339H224.101C224.992 100.986 233.46 107.674 249.726 107.674C265.993 107.674 273.569 102.101 273.569 91.8465Z" fill="white"/>
<path d="M393.008 87.6112C393.008 104.33 388.774 115.253 380.084 120.604C371.393 125.508 362.034 128.183 351.561 128.183C341.534 128.183 332.397 125.508 324.153 119.935C315.685 114.585 311.451 103.884 311.451 87.6112V29.4287H335.74V92.7384C335.74 103.661 341.311 108.789 352.23 108.789C363.148 108.789 368.719 103.439 368.719 92.7384V41.4665C368.496 33.4413 372.284 29.4287 380.529 29.4287H393.008V87.6112Z" fill="white"/>
<path d="M427.992 152.258C427.992 160.283 423.981 164.296 415.959 164.296H403.704V71.5607C405.041 42.5809 419.97 28.314 449.161 28.314C479.244 28.314 494.174 44.5872 494.174 77.3566C494.174 110.349 481.249 127.514 455.401 128.406C443.368 128.406 434.232 123.501 427.992 113.47V152.258ZM448.716 106.336C461.863 106.336 468.771 96.9737 469.216 78.2483C469.216 58.6313 462.309 48.8227 448.27 48.8227C434.232 48.8227 427.77 58.6313 427.992 78.2483C428.661 96.9737 435.569 106.336 448.716 106.336Z" fill="white"/>
<path d="M529.827 152.258C529.827 160.283 525.816 164.296 517.794 164.296H505.539V71.5607C506.876 42.5809 521.805 28.314 550.996 28.314C581.079 28.314 596.009 44.5872 596.009 77.3566C596.009 110.349 583.084 127.514 557.236 128.406C545.203 128.406 536.067 123.501 529.827 113.47V152.258ZM550.551 106.336C563.698 106.336 570.606 96.9737 571.051 78.2483C571.051 58.6313 564.144 48.8227 550.105 48.8227C536.067 48.8227 529.604 58.6313 529.827 78.2483C530.719 96.9737 537.404 106.336 550.551 106.336Z" fill="white"/>
<path d="M694.946 78.2481C694.946 111.686 680.016 128.405 650.825 128.405C621.634 128.405 606.927 111.463 606.927 78.2481C606.927 44.587 621.634 27.8679 650.825 27.8679C680.016 27.8679 694.946 44.587 694.946 78.2481ZM631.438 78.2481C631.661 97.1964 638.123 106.782 650.602 106.782C663.081 106.782 669.32 96.9735 669.543 77.5794C669.543 58.6311 663.303 49.2684 650.825 49.2684C637.9 49.2684 631.438 59.0769 631.438 78.2481Z" fill="white"/>
<path d="M706.533 76.2422C707.202 44.8103 723.914 29.2058 756.448 29.2058H760.013V54.6188H751.768C738.175 54.6188 731.49 61.7523 731.49 75.7964V126.399H706.756V76.2422H706.533Z" fill="white"/>
<path d="M800.122 46.8162H797.448V100.54C797.448 104.553 799.899 106.782 804.579 106.782H812.155V125.285C804.356 125.953 795.665 125.953 786.529 125.062C777.393 124.17 772.936 118.374 773.159 107.674V1.78613H785.861C792.323 1.78613 797.671 7.58209 797.671 14.0468V29.4284H812.378V34.7785C812.155 41.689 806.807 46.8162 800.122 46.8162Z" fill="white"/>
<path d="M865.635 128.628C836.221 127.737 821.737 110.572 821.737 77.5794C821.737 44.587 836.667 28.0908 866.081 27.8679C896.832 27.8679 911.316 46.8162 909.533 84.7128H846.917C847.809 99.6486 854.271 107.005 866.081 107.005C871.652 107.005 877 104.553 881.902 100.094C884.13 97.6423 886.804 96.5277 890.147 96.5277H908.196C902.848 117.259 889.478 128.628 865.635 128.628ZM847.14 67.325H883.685C882.125 54.3956 876.108 47.9308 865.635 47.9308C855.385 47.9308 849.146 54.6185 847.14 67.325Z" fill="white"/>
<path d="M920.898 76.2422C921.566 44.8103 938.279 29.2058 970.812 29.2058H974.378V54.6188H966.133C952.54 54.6188 945.855 61.7523 945.855 75.7964V126.399H921.121V76.2422H920.898Z" fill="white"/>
<path d="M998.443 1.78613H1011.37V48.3767H1062.62V1.78613H1088.47V126.399H1062.62V71.1146H1011.37V126.399H985.519V15.1614C985.519 8.02793 991.312 1.78613 998.443 1.78613Z" fill="white"/>
<path d="M1181.83 87.6112C1181.83 104.33 1177.6 115.253 1168.91 120.604C1160.22 125.508 1150.86 128.183 1140.39 128.183C1130.36 128.183 1121.22 125.508 1112.98 119.935C1104.51 114.585 1100.28 103.884 1100.28 87.6112V29.4287H1124.57V92.7384C1124.57 103.661 1130.14 108.789 1141.06 108.789C1151.97 108.789 1157.55 103.439 1157.55 92.7384V41.4665C1157.32 33.4413 1161.11 29.4287 1169.36 29.4287H1181.83V87.6112Z" fill="white"/>
<path d="M1216.82 43.0266C1223.06 32.9951 1232.19 28.0908 1244.23 28.0908C1270.08 28.9825 1283 45.9245 1283 78.9169C1283 111.24 1268.07 127.514 1237.99 127.96C1207.68 128.182 1192.53 113.693 1192.53 84.4899V1.78613H1204.79C1212.81 1.78613 1216.82 6.02164 1216.82 14.0468V43.0266ZM1216.82 77.5794C1216.6 97.1964 1223.28 107.005 1237.1 107.005C1251.13 107.005 1258.04 97.1964 1258.04 77.5794C1257.6 58.854 1250.69 49.7142 1237.54 49.7142C1224.39 49.7142 1217.49 58.854 1216.82 77.5794Z" fill="white"/>
<path d="M30.3388 95.3767C30.3388 95.1535 30.2617 94.9304 30.2141 94.7605C30.1947 94.6913 30.0906 94.6568 30.0398 94.7076C30.0247 94.7227 30.0156 94.7433 30.0184 94.7645C30.0384 94.9155 30.1886 95.0761 30.3388 95.3767C30.984 100.863 33.7262 105.543 36.6296 109.9C46.3077 124.261 60.0183 132.168 77.2776 133.62C81.5238 134.019 85.7699 133.98 90.1059 132.966C91.4771 132.645 91.9482 131.001 91.0686 129.901C90.2455 128.872 89.4877 127.885 88.73 126.843C87.4396 125.068 86.633 123.132 85.8265 121.034C85.1813 119.582 84.0522 120.066 82.9231 120.227C63.2443 123.616 47.2755 117.322 34.8553 101.831C33.2422 99.8949 31.7905 97.6358 30.3388 95.3767ZM0.659338 30.3462C0.659338 45.3533 12.757 57.4557 27.758 57.4557C42.759 57.4557 55.018 45.3533 55.018 30.3462C55.1793 15.5006 42.759 3.2368 27.758 3.2368C12.757 3.2368 0.659338 15.3392 0.659338 30.3462ZM139.803 65.4695C140.385 67.7257 143.026 67.6591 142.84 65.3364C141.449 47.9111 132.598 26.8717 112.603 12.9187C91.7962 -1.81865 65.2701 -2.68024 48.6417 4.00373C47.2556 4.56091 47.0809 6.39939 48.2014 7.38745C52.5608 11.2315 55.7794 15.9152 57.2762 21.6325C58.0827 24.3757 59.0505 24.3757 61.3087 23.5689C74.858 18.8893 88.5687 18.7279 101.957 23.8916C122.446 31.9862 134.805 46.1019 139.803 65.4695ZM133.249 112.804C133.249 99.8949 123.248 89.7289 110.344 89.7289C97.9242 89.7289 87.4396 100.218 87.2783 112.481C87.2783 125.068 97.6015 135.395 110.344 135.395C123.248 135.557 133.249 125.552 133.249 112.804ZM77.6541 141.933C77.9002 141.9 77.9442 141.549 77.7687 141.373C77.73 141.334 77.7333 141.359 77.6801 141.346C77.1217 141.215 76.6785 141.2 76.1281 141.077C76.034 141.056 75.9385 141.038 75.8426 141.028C58.3257 139.227 43.8585 131.807 33.0809 117.806C20.4994 101.509 17.2734 83.2742 22.7576 63.4262C23.4029 61.1671 22.9189 60.5216 20.6607 60.0376C14.5313 58.7466 9.36962 55.6807 5.01448 51.1624C4.75285 50.9007 4.53837 50.4975 4.19259 50.2077C3.56349 49.6806 2.78026 50.3971 2.58604 51.1945C-3.69073 76.9646 1.29079 100.072 19.3703 119.904C35.799 137.935 60.1137 144.29 77.6541 141.933ZM98.0409 30.9606C97.5416 30.8088 97.3154 31.3686 97.7629 31.6372C105.667 36.1554 111.796 42.4487 115.99 50.517C121.958 61.8126 123.087 73.5923 120.022 85.8561C119.861 86.8243 118.732 88.1152 120.345 88.7607C123.693 90.1251 126.469 92.1571 129.039 94.6366C130.116 95.675 131.93 95.3199 132.353 93.8853C139.766 68.7362 124.796 39.0965 98.0409 30.9606Z" fill="#F16522"/>
<path d="M0.660156 30.3468C0.660156 15.3397 12.7578 3.2373 27.7588 3.2373C42.5985 3.2373 55.0188 15.5011 55.0188 30.3468C55.0188 45.3538 42.7598 57.4562 27.7588 57.4562C12.7578 57.4562 0.660156 45.3538 0.660156 30.3468Z" fill="#F16522"/>
<path d="M142.864 65.6595C143.038 67.976 140.401 68.0439 139.825 65.7932C134.831 46.2594 122.531 32.0317 101.796 23.8921C88.4081 18.7284 74.6975 18.8898 61.1482 23.5694C58.89 24.3762 57.9222 24.3762 57.1157 21.633C55.6189 15.9157 52.4003 11.232 48.0409 7.38797C46.9203 6.39991 47.0952 4.56156 48.4818 4.00556C65.1102 -2.66193 91.6359 -1.66603 112.442 12.9193C132.685 26.9584 141.55 48.1718 142.864 65.6595Z" fill="#F16522"/>
<path d="M133.25 112.805C133.25 125.553 123.249 135.557 110.506 135.557C97.7632 135.557 87.4399 125.23 87.4399 112.643C87.4399 100.218 97.9245 89.8908 110.506 89.8908C123.249 89.7294 133.25 99.8955 133.25 112.805Z" fill="white"/>
<path d="M97.9247 31.6376C97.4285 31.3894 97.651 30.8276 98.1821 30.988C124.844 39.0439 139.753 68.613 132.501 93.8528C132.086 95.2965 130.266 95.6589 129.192 94.6082C126.624 92.0952 123.851 90.0001 120.507 88.7611C118.894 88.1156 120.023 86.8247 120.184 85.8565C123.088 73.5927 122.12 61.813 116.152 50.5174C111.958 42.4491 105.829 36.3172 97.9247 31.6376Z" fill="white"/>
<path d="M32.6198 103.023C31.7865 101.245 33.6597 100.437 34.8563 101.993C47.2765 117.484 63.2453 123.778 82.9241 120.389C84.0532 120.228 85.3437 119.743 85.8276 121.196C86.6341 123.293 87.4406 125.23 88.731 127.005C89.4944 128.055 90.2577 129.049 91.0879 130.086C91.9628 131.179 91.5023 132.812 90.1394 133.134C85.8627 134.142 81.5163 134.18 77.2786 133.782C60.1806 132.169 46.47 124.262 36.6306 109.9C35.1709 107.71 33.752 105.438 32.6198 103.023Z" fill="white"/>
<path d="M30.1992 94.8286C30.2957 95.0161 30.125 95.0884 30.004 94.9158C29.9797 94.8812 29.9554 94.848 29.9311 94.8173C29.892 94.768 29.892 94.6956 29.9366 94.651C29.9811 94.6065 30.0537 94.6064 30.0918 94.6566C30.1298 94.7067 30.1664 94.7648 30.1992 94.8286Z" fill="#A7A9AC"/>
</svg>
